# xmcd CD Database Entry
#
# Track frame offsets:
# 150
# 19925
# 35550
# 73617
# 91732
# 151920
# 193320
# 239545
#
# Disc length: 4385 seconds
#
# Revision: 2
# Processed by: cddbd v1.4PL0 Copyright (c) Steve Scherf et al.
# Submitted via: tcd 2.0b
#
DISCID=66111f08
DTITLE=SBB - Nowy Horyzont, Pamiêæ
DYEAR=1975
DGENRE=
TTITLE0=Na pierwszy ogieñ
TTITLE1=B³ysk
TTITLE2=Nowy horyzont
TTITLE3=Ballada o piêciu g³odnych
TTITLE4=Wolno¶æ z nami
TTITLE5=W ko³ysce d³oni twych (ojcu)
TTITLE6=Z których krwi krew moja
TTITLE7=Pamiêæ w kamieñ wrasta
EXTD=YEAR: 1975
EXTT0=
EXTT1=
EXTT2=
EXTT3=
EXTT4=
EXTT5=
EXTT6=
EXTT7=
PLAYORDER=
